Coordinates
version=1
nRows=19
nColumns=24
inDegrees=yes

Units are S.I. units (second, meters, Newtons, ...)
Angles are in degrees.

endheader
time	pelvis_tilt	pelvis_list	pelvis_rotation	pelvis_tx	pelvis_ty	pelvis_tz	hip_flexion_r	hip_adduction_r	hip_rotation_r	knee_angle_r	ankle_angle_r	subtalar_angle_r	mtp_angle_r	hip_flexion_l	hip_adduction_l	hip_rotation_l	knee_angle_l	ankle_angle_l	subtalar_angle_l	mtp_angle_l	lumbar_extension	lumbar_bending	lumbar_rotation
      0.60000000	     -0.28298775	      1.61438970	      4.75771432	     -0.70365350	      0.98911914	      0.26855044	     22.42626676	     -1.00134311	     -3.48389076	     -3.31962608	      1.70993939	    -14.43042999	     10.06847603	    -19.33205294	      2.56085330	      7.74003129	     -9.79104589	     10.45753380	     -9.57141192	      9.63103588	     -1.46992429	     -2.38161426	     -7.46123091
      0.60416667	     -0.30556434	      1.46238895	      4.79556644	     -0.69708200	      0.98884859	      0.26902853	     22.40597796	     -0.78537006	     -3.25898360	     -3.88268243	      1.29638854	    -14.79222534	     10.02299880	    -19.22400650	      2.36041172	      7.53715845	    -10.66451108	     10.28408286	     -9.31551614	      9.73645455	     -1.32679342	     -2.18116390	     -7.55382179
      0.60833333	     -0.30887433	      1.30029937	      4.82078246	     -0.69048182	      0.98863379	      0.26952753	     22.36711235	     -0.55342006	     -3.05664137	     -4.45665545	      0.86774434	    -15.12930153	      9.98845534	    -19.10710461	      2.14810993	      7.27266639	    -11.59210773	     10.10254451	     -8.98349827	      9.90228285	     -1.20007073	     -1.96456368	     -7.61945375
      0.61250000	     -0.31343916	      1.11413692	      4.82402812	     -0.68381622	      0.98845354	      0.27003608	     22.33895576	     -0.29357003	     -2.90657123	     -5.05566079	      0.42684033	    -15.34773839	      9.97071412	    -18.99394429	      1.92160812	      7.01748124	    -12.50396866	      9.80454412	     -8.75414189	     10.04805925	     -1.06537413	     -1.69991195	     -7.66809242
      0.61666667	     -0.30572379	      0.95862509	      4.84755399	     -0.67723304	      0.98832286	      0.27057843	     22.28855187	     -0.06590583	     -2.72344820	     -5.64158205	      0.01802482	    -15.69441762	      9.95351738	    -18.79724770	      1.70605355	      6.64926599	    -13.59645558	      9.58259301	     -8.30971947	     10.33001981	     -0.95404047	     -1.50584387	     -7.71159419
      0.62083333	     -0.29126091	      0.77982856	      4.85215288	     -0.67060284	      0.98823263	      0.27113123	     22.24267407	      0.18747604	     -2.59675180	     -6.25619536	     -0.38714033	    -15.93064934	      9.94025142	    -18.60325777	      1.47161731	      6.27973955	    -14.68944845	      9.27285032	     -7.93260542	     10.69045998	     -0.84641115	     -1.26906895	     -7.73707928
      0.62500000	     -0.27649187	      0.60859559	      4.84078064	     -0.66399538	      0.98817274	      0.27170671	     22.22464663	      0.43473121	     -2.50185440	     -6.93217047	     -0.76089971	    -16.14915798	      9.92759880	    -18.38584860	      1.24818250	      5.90221399	    -15.81646147	      8.93677706	     -7.54281290	     11.20426281	     -0.74785848	     -1.03314408	     -7.75080507
      0.62916667	     -0.26702905	      0.43068728	      4.82709540	     -0.65738135	      0.98814641	      0.27229577	     22.20121733	      0.68694417	     -2.42123104	     -7.58975124	     -1.10007193	    -16.30206035	      9.91390611	    -18.11981645	      1.01254157	      5.48829727	    -17.01594694	      8.51368228	     -7.17171520	     11.80076910	     -0.63351949	     -0.79435654	     -7.74592116
      0.63333333	     -0.20194744	      0.22185220	      4.82621543	     -0.65074365	      0.98825692	      0.27286705	     22.08436473	      0.97059723	     -2.36389283	     -8.18162911	     -1.47452129	    -16.48779634	      9.74280671	    -17.89804292	      0.73208813	      5.09539443	    -18.21262269	      7.89245411	     -7.01526994	     19.20259076	     -0.58078157	     -0.50258245	     -7.73420210
      0.63750000	     -0.20586935	      0.07785848	      4.77466834	     -0.64419432	      0.98826838	      0.27351131	     22.11421766	      1.18969166	     -2.31525604	     -8.93000633	     -1.62640356	    -16.43965504	      9.74020377	    -17.55813861	      0.53904922	      4.66177187	    -19.50175637	      7.32110806	     -6.70978864	     19.26220317	     -0.45839528	     -0.31829078	     -7.72082405
      0.64166667	     -0.19465944	     -0.09580858	      4.74164518	     -0.63764985	      0.98835330	      0.27414248	     22.10395167	      1.43414041	     -2.29550926	     -9.62983321	     -1.83087184	    -16.47091605	      9.73082828	    -17.19246524	      0.29828157	      4.22147193	    -20.85208343	      6.71872905	     -6.38908255	     19.36741487	     -0.35357145	     -0.08337477	     -7.69059995
      0.64583333	     -0.16199264	     -0.26919340	      4.69956019	     -0.63115300	      0.98848366	      0.27480732	     22.07459430	      1.68244155	     -2.28208720	    -10.33996968	     -1.98134299	    -16.48671888	      9.71554269	    -16.81210556	      0.04787505	      3.75583327	    -22.25994455	      6.09569004	     -6.05586360	     19.51735610	     -0.28198213	      0.14890388	     -7.64967442
      0.65000000	     -0.14782958	     -0.43609307	      4.65586050	     -0.62472239	      0.98861245	      0.27548438	     22.07886191	      1.92054853	     -2.29115356	    -11.08066927	     -2.09593944	    -16.50445265	      9.68635897	    -16.36911746	     -0.20013826	      3.30288057	    -23.73261298	      5.45803631	     -5.71148761	     19.76466982	     -0.20729300	      0.37830349	     -7.59545530
      0.65416667	     -0.08376104	     -0.61201405	      4.58058878	     -0.61830480	      0.98884065	      0.27626052	     21.99198858	      2.19658975	     -2.18581460	    -11.74392310	     -2.17219192	    -16.62585601	      9.09993400	    -15.96010197	     -0.47683988	      2.77101463	    -25.21002249	      4.64880235	     -5.42729686	     24.06972415	     -0.18774373	      0.60739861	     -7.55487646
      0.65833333	     -0.08143706	     -0.78233832	      4.55027548	     -0.61191446	      0.98904254	      0.27690019	     21.97408032	      2.42254645	     -2.26507780	    -12.42030310	     -2.19342252	    -16.43745531	      9.09773391	    -15.44923700	     -0.73589530	      2.38551775	    -26.74431629	      3.84448497	     -5.27291229	     24.10796573	     -0.08071796	      0.83539953	     -7.48364221
      0.66250000	     -0.06425584	     -0.93782540	      4.49208417	     -0.60560558	      0.98927362	      0.27763216	     21.94045042	      2.65374349	     -2.27262812	    -13.09753565	     -2.16408283	    -16.36776930	      9.08803327	    -14.92009589	     -0.99208980	      1.95021434	    -28.31747535	      3.03674424	     -5.05341873	     24.16535134	     -0.01635446	      1.04065832	     -7.41839599
      0.66666667	     -0.03980418	     -1.09972864	      4.43700969	     -0.59936173	      0.98953376	      0.27836580	     21.88225863	      2.89258918	     -2.28177344	    -13.73626167	     -2.11879145	    -16.30400574	      9.07115497	    -14.37084284	     -1.26145950	      1.54155636	    -29.92752640	      2.20732544	     -4.87514019	     24.23015144	      0.03261148	      1.25489593	     -7.34746330
      0.67083333	     -0.02392698	     -1.25625028	      4.38460907	     -0.59317910	      0.98980675	      0.27910663	     21.82190461	      3.12510998	     -2.29486285	    -14.35375010	     -2.04805932	    -16.24738940	      9.04478489	    -13.77859303	     -1.53296344	      1.15175571	    -31.57447276	      1.36772571	     -4.71374680	     24.30514923	      0.08488003	      1.46859622	     -7.27119337
      0.67500000	     -0.01127582	     -1.41378835	      4.33559184	     -0.58703966	      0.99011834	      0.27985997	     21.73623217	      3.36134753	     -2.30149496	    -14.91075311	     -1.95321002	    -16.18769309	      9.01506433	    -13.16226618	     -1.81139821	      0.78725663	    -33.22917657	      0.51658074	     -4.62145512	     24.36337516	      0.13751414	      1.66024192	     -7.19951370
